<svg xmlns="http://www.w3.org/2000/svg" xmlns:xlink="http://www.w3.org/1999/xlink" version="1.1" id="Capa_1" x="0px" y="0px" width="90px" height="90px" viewBox="0 0 90 90" enable-background="new 0 0 90 90" xml:space="preserve">
<path fill="#000000" d="M86.351,43.512c-0.443-0.243-0.882-0.411-1.323-0.562c-0.882-0.296-1.767-0.503-2.651-0.688  c-1.769-0.359-3.543-0.608-5.319-0.817c-3.554-0.422-7.116-0.634-10.677-0.851c-2.805-0.17-5.612-0.26-8.42-0.344  c2.008-2.197,4.004-4.405,5.941-6.669c2.317-2.729,4.535-5.547,6.65-8.451c1.051-1.459,2.074-2.938,3.01-4.498  c0.468-0.778,0.914-1.575,1.297-2.433c0.192-0.427,0.36-0.879,0.492-1.367c0.051-0.263,0.112-0.512,0.103-0.831  c0.017-0.115-0.034-0.389-0.115-0.6c-0.126-0.294-0.051-0.129-0.28-0.453c-0.772-0.589-1.401-0.322-1.869-0.236  c-0.478,0.148-0.919,0.334-1.333,0.542c-0.833,0.413-1.605,0.89-2.358,1.388c-1.509,0.993-2.937,2.075-4.343,3.183  c-2.812,2.213-5.479,4.584-8.149,6.945c-2.442,2.163-4.83,4.385-7.194,6.631c-0.083-3.259-0.2-6.519-0.397-9.775  c-0.214-3.56-0.429-7.122-0.848-10.676c-0.21-1.777-0.458-3.552-0.816-5.322c-0.186-0.885-0.393-1.768-0.688-2.65  c-0.151-0.44-0.318-0.882-0.562-1.325c-0.241-0.388-0.574-1.034-1.427-1.151c-1.124,0.096-1.292,0.739-1.611,1.122  c-0.263,0.439-0.451,0.877-0.62,1.315c-0.335,0.878-0.583,1.756-0.806,2.639c-0.437,1.763-0.764,3.535-1.051,5.309  c-0.556,3.551-0.989,7.11-1.271,10.679c-0.229,2.969-0.38,5.94-0.516,8.912c-2.042-1.924-4.088-3.844-6.188-5.704  c-2.668-2.365-5.338-4.735-8.149-6.949c-1.404-1.108-2.832-2.19-4.341-3.183c-0.753-0.499-1.524-0.977-2.359-1.39  c-0.415-0.208-0.854-0.394-1.333-0.542c-0.257-0.059-0.502-0.129-0.817-0.129c-0.115-0.022-0.383,0.021-0.595,0.097  c-0.253,0.086-0.234,0.125-0.364,0.189c-0.509,0.504-0.458,0.806-0.496,1.137c-0.01,0.319,0.051,0.57,0.101,0.832  c0.132,0.49,0.301,0.942,0.494,1.368c0.381,0.859,0.829,1.656,1.296,2.435c0.935,1.561,1.958,3.041,3.01,4.499  c2.115,2.905,4.327,5.726,6.652,8.449c1.936,2.26,3.931,4.468,5.937,6.664c-2.805,0.084-5.61,0.174-8.414,0.344  c-3.56,0.213-7.122,0.428-10.675,0.848c-1.778,0.208-3.552,0.457-5.323,0.816c-0.884,0.186-1.768,0.393-2.65,0.688  c-0.441,0.151-0.882,0.319-1.326,0.562C3.265,43.777,2.625,44.014,2.501,45c0.103,0.99,0.74,1.255,1.125,1.544  c0.44,0.263,0.877,0.45,1.316,0.621c0.877,0.335,1.756,0.581,2.638,0.804c1.763,0.439,3.535,0.765,5.309,1.052  c3.551,0.558,7.11,0.991,10.679,1.271c2.969,0.229,5.941,0.38,8.915,0.515c-1.925,2.043-3.846,4.089-5.706,6.19  c-2.365,2.668-4.735,5.337-6.949,8.147c-1.109,1.405-2.191,2.833-3.184,4.342c-0.499,0.754-0.975,1.525-1.389,2.36  c-0.208,0.415-0.394,0.854-0.541,1.333c-0.06,0.257-0.129,0.503-0.129,0.817c-0.022,0.115,0.023,0.384,0.097,0.596  c0.122,0.297,0.044,0.135,0.271,0.462c0.764,0.61,1.411,0.363,1.889,0.294c0.49-0.13,0.942-0.3,1.369-0.492  c0.858-0.383,1.655-0.829,2.435-1.298c1.56-0.934,3.04-1.958,4.498-3.01c2.905-2.115,5.727-4.327,8.449-6.651  c1.93-1.652,3.807-3.363,5.688-5.066c0.125,2.536,0.243,5.072,0.439,7.606c0.291,3.568,0.716,7.129,1.274,10.678  c0.288,1.774,0.613,3.546,1.05,5.308c0.224,0.883,0.47,1.763,0.804,2.64c0.17,0.438,0.358,0.875,0.622,1.313  c0.288,0.385,0.552,1.021,1.538,1.124c0.98-0.125,1.219-0.764,1.489-1.153c0.242-0.443,0.41-0.882,0.562-1.323  c0.296-0.882,0.503-1.767,0.688-2.651c0.358-1.77,0.606-3.543,0.816-5.32c0.422-3.553,0.634-7.117,0.851-10.676  c0.171-2.806,0.261-5.612,0.344-8.42c2.195,2.007,4.403,4.003,6.667,5.939c2.729,2.316,5.547,4.534,8.452,6.648  c1.457,1.052,2.938,2.076,4.498,3.01c0.777,0.469,1.574,0.915,2.433,1.298c0.427,0.192,0.877,0.362,1.367,0.492  c0.261,0.051,0.512,0.112,0.831,0.103c0.114,0.017,0.388-0.033,0.597-0.113c0.254-0.091,0.229-0.133,0.358-0.201  c0.5-0.508,0.437-0.806,0.463-1.132c0-0.314-0.068-0.561-0.127-0.816c-0.148-0.479-0.334-0.918-0.541-1.333  c-0.414-0.834-0.892-1.606-1.389-2.359c-0.992-1.51-2.074-2.938-3.183-4.343c-2.213-2.811-4.584-5.479-6.945-8.148  c-1.864-2.104-3.785-4.153-5.713-6.198c2.974-0.134,5.946-0.283,8.917-0.514c3.57-0.291,7.129-0.717,10.679-1.274  c1.774-0.288,3.546-0.613,5.309-1.051c0.882-0.223,1.762-0.469,2.639-0.804c0.438-0.171,0.875-0.358,1.313-0.62  c0.383-0.26,1.023-0.619,1.119-1.474C87.384,43.953,86.738,43.812,86.351,43.512z M57.241,27.043  c2.71-2.308,5.513-4.509,8.383-6.598c1.44-1.036,2.9-2.047,4.409-2.948c0.753-0.452,1.521-0.879,2.3-1.224  c0.388-0.175,0.78-0.316,1.158-0.417c0.297-0.087,0.587-0.056,0.665-0.038c0.029,0.048,0.127,0.181,0.054,0.136  c-0.039,0.009-0.013-0.051-0.029,0.059c0.005,0.131-0.046,0.313-0.088,0.487c-0.117,0.367-0.272,0.747-0.463,1.124  c-0.378,0.755-0.834,1.497-1.316,2.225c-0.962,1.459-2.027,2.867-3.121,4.253c-2.188,2.775-4.543,5.432-6.897,8.082  c-2.396,2.705-4.854,5.357-7.354,7.969c-1.684-0.032-3.37-0.025-5.055-0.032c-0.012-2.156-0.012-4.312-0.065-6.466  C52.26,31.41,54.724,29.197,57.241,27.043z M38.906,47.528c0.006,0.365,0.019,0.73,0.025,1.097c-1.38-0.013-2.762,0-4.143-0.029  c0.844-0.908,1.713-1.793,2.567-2.69C37.874,46.445,38.385,46.992,38.906,47.528z M42.479,51.1c0.263,0.255,0.531,0.505,0.795,0.758  c-0.628,0.618-1.248,1.241-1.88,1.854c-0.015-0.879-0.01-1.757-0.017-2.637C41.744,51.081,42.112,51.095,42.479,51.1z   M47.534,51.099c0.748-0.012,1.494-0.037,2.242-0.053c-0.031,1.243-0.044,2.487-0.088,3.729c-0.999-0.958-1.967-1.943-2.953-2.913  C47.001,51.605,47.269,51.354,47.534,51.099z M49.915,45.245c0-0.081,0.003-0.162,0.003-0.244c0,0.083-0.005,0.166-0.005,0.249  c-0.775,0.775-1.53,1.572-2.312,2.343c-0.356,0.359-0.724,0.705-1.08,1.064c-0.506-0.002-1.011,0.014-1.516,0.01  c-0.506,0.004-1.011-0.012-1.517-0.011c-0.354-0.356-0.721-0.701-1.075-1.06c-0.361-0.356-0.707-0.724-1.066-1.081  c0.002-0.505-0.014-1.009-0.01-1.513c-0.007-1.099,0.021-2.197,0.023-3.297c0.059-0.06,0.113-0.12,0.172-0.181  c-0.059,0.058-0.113,0.117-0.172,0.175c0.001-0.51,0.008-1.019,0.011-1.528c0.524-0.009,1.047-0.029,1.57-0.036  c-0.466,0.468-0.946,0.92-1.409,1.39c0.48-0.47,0.977-0.923,1.458-1.391c0.671-0.01,1.343-0.042,2.014-0.048  c-0.659-0.005-1.318,0.015-1.978,0.014c0.653-0.637,1.319-1.258,1.978-1.888c0.658,0.63,1.324,1.253,1.979,1.888  c-0.659,0.001-1.319-0.019-1.979-0.014c0.671,0.006,1.343,0.038,2.016,0.048c0.482,0.469,0.979,0.921,1.46,1.393  c-0.464-0.471-0.946-0.924-1.41-1.392c0.912,0.013,1.821,0.045,2.735,0.064c0.02,0.911,0.052,1.823,0.063,2.734  c-0.468-0.465-0.919-0.944-1.389-1.407c0.47,0.479,0.921,0.976,1.389,1.457c0.01,0.673,0.044,1.344,0.049,2.017  c0.005-0.66-0.015-1.321-0.013-1.98c0.363,0.376,0.722,0.76,1.085,1.138C50.632,44.52,50.276,44.884,49.915,45.245z M52.654,45.902  c0.855,0.9,1.726,1.788,2.574,2.698c-1.729,0.036-3.454,0.024-5.179,0.034C50.927,47.734,51.784,46.812,52.654,45.902z   M38.87,44.002c-1.212-1.228-2.439-2.44-3.632-3.685c1.239-0.045,2.479-0.057,3.719-0.088C38.93,41.487,38.883,42.744,38.87,44.002z   M41.371,40.11c0.01-1.775,0-3.553,0.038-5.328c1.193,1.11,2.36,2.249,3.537,3.374c-0.655,0.649-1.318,1.29-1.969,1.944  C42.442,40.099,41.906,40.11,41.371,40.11z M45.064,38.156c1.519-1.453,3.028-2.915,4.573-4.339c0.085,2.1,0.119,4.2,0.166,6.301  c-0.924-0.003-1.848-0.021-2.771-0.018C46.383,39.447,45.719,38.806,45.064,38.156z M49.903,42.971  c0.005-0.924-0.013-1.846-0.018-2.769c1.631,0.036,3.264,0.056,4.892,0.115c-1.23,1.283-2.495,2.533-3.746,3.797  C50.654,43.733,50.283,43.349,49.903,42.971z M41.844,23.713c0.219-3.539,0.426-7.081,0.843-10.592  c0.206-1.753,0.449-3.502,0.797-5.215c0.176-0.853,0.377-1.702,0.645-2.503c0.134-0.397,0.285-0.788,0.467-1.121  c0.128-0.342,0.53-0.569,0.343-0.535c0.082-0.055,0.322,0.169,0.526,0.506c0.201,0.329,0.372,0.717,0.525,1.111  c0.308,0.795,0.546,1.641,0.762,2.491c0.426,1.705,0.748,3.451,1.031,5.202c0.553,3.507,0.979,7.045,1.267,10.593  c0.257,3.304,0.435,6.611,0.573,9.924c-1.56,1.486-3.085,3.008-4.618,4.524c-1.195-1.185-2.38-2.38-3.595-3.548  C41.488,30.935,41.626,27.32,41.844,23.713z M27.718,32.183c-2.347-2.658-4.708-5.307-6.893-8.084  c-1.093-1.385-2.161-2.794-3.122-4.252c-0.481-0.727-0.939-1.47-1.314-2.225c-0.19-0.376-0.348-0.756-0.464-1.122  c-0.041-0.174-0.09-0.356-0.088-0.486c-0.029-0.053-0.001-0.11,0.012-0.144c0.314-0.157,1.18,0.11,1.829,0.409  c0.778,0.346,1.546,0.771,2.298,1.224c1.509,0.902,2.97,1.911,4.409,2.949c2.871,2.087,5.673,4.289,8.386,6.595  c2.175,1.86,4.296,3.782,6.412,5.711c-0.108,2.456-0.17,4.911-0.223,7.369c-1.295,0.01-2.589-0.001-3.884,0.024  C32.571,37.54,30.114,34.889,27.718,32.183z M23.716,48.16c-3.539-0.219-7.081-0.426-10.591-0.842  c-1.753-0.206-3.503-0.45-5.215-0.798c-0.853-0.177-1.702-0.377-2.503-0.645C5.01,45.743,4.62,45.591,4.286,45.41  C3.945,45.252,3.715,44.945,3.754,45c-0.061,0.051,0.167-0.285,0.503-0.461c0.329-0.2,0.715-0.371,1.111-0.525  c0.794-0.306,1.64-0.546,2.491-0.762c1.706-0.425,3.452-0.748,5.203-1.03c3.507-0.554,7.044-0.979,10.592-1.267  c2.855-0.222,5.715-0.362,8.576-0.495c1.661,1.814,3.354,3.596,5.055,5.369c-0.908,0.924-1.831,1.832-2.729,2.766  C30.94,48.515,27.324,48.379,23.716,48.16z M32.188,62.285c-2.657,2.347-5.308,4.707-8.083,6.893  c-1.385,1.095-2.794,2.161-4.252,3.122c-0.726,0.482-1.469,0.939-2.224,1.314c-0.376,0.191-0.757,0.349-1.122,0.466  c-0.324,0.114-0.636,0.082-0.657,0.087c-0.038-0.054-0.12-0.161-0.055-0.118c0.034-0.007,0.002,0.047,0.014-0.063  c-0.012-0.133,0.029-0.32,0.06-0.501c0.101-0.375,0.241-0.768,0.417-1.156c0.344-0.778,0.771-1.547,1.224-2.298  c0.902-1.51,1.911-2.971,2.947-4.41c2.087-2.871,4.29-5.672,6.595-8.384c1.861-2.176,3.784-4.298,5.713-6.413  c2.074,0.093,4.149,0.145,6.224,0.196c0.042,1.629,0.056,3.258,0.122,4.886C36.833,58.067,34.537,60.206,32.188,62.285z   M49.05,66.352c-0.282,3.548-0.711,7.087-1.262,10.594c-0.283,1.752-0.605,3.497-1.031,5.202c-0.216,0.851-0.454,1.696-0.76,2.491  c-0.154,0.397-0.326,0.784-0.527,1.113c-0.175,0.337-0.51,0.565-0.465,0.505c0.05,0.039-0.257-0.192-0.416-0.534  c-0.18-0.334-0.333-0.724-0.467-1.123c-0.267-0.8-0.468-1.65-0.645-2.503c-0.347-1.713-0.592-3.463-0.798-5.215  c-0.415-3.511-0.63-7.053-0.84-10.593c-0.189-3.128-0.3-6.263-0.382-9.399c1.2-1.107,2.365-2.253,3.549-3.379  c1.503,1.431,3.009,2.858,4.541,4.259C49.413,60.633,49.272,63.495,49.05,66.352z M62.963,57.236  c2.308,2.709,4.509,5.513,6.597,8.383c1.036,1.438,2.048,2.899,2.949,4.409c0.451,0.752,0.88,1.52,1.224,2.299  c0.175,0.389,0.316,0.78,0.416,1.157c0.032,0.181,0.073,0.368,0.059,0.503c0.02,0.048,0,0.096-0.017,0.131  c-0.3,0.148-1.16-0.16-1.811-0.496c-0.756-0.377-1.499-0.833-2.226-1.314c-1.457-0.962-2.865-2.029-4.252-3.123  c-2.776-2.188-5.433-4.542-8.081-6.896c-2.705-2.395-5.356-4.853-7.969-7.353c0.026-1.298,0.014-2.596,0.026-3.893  c2.456-0.054,4.91-0.117,7.367-0.226C59.176,52.936,61.102,55.06,62.963,57.236z M84.604,45.882  c-0.799,0.269-1.649,0.468-2.503,0.645c-1.713,0.349-3.463,0.594-5.215,0.8c-3.512,0.414-7.053,0.63-10.591,0.838  c-3.607,0.218-7.222,0.355-10.838,0.434c-0.899-0.935-1.822-1.845-2.731-2.77c1.698-1.775,3.39-3.557,5.049-5.37  c2.861,0.133,5.725,0.275,8.581,0.496c3.548,0.283,7.087,0.712,10.594,1.263c1.752,0.284,3.497,0.605,5.203,1.03  c0.851,0.216,1.696,0.455,2.493,0.762c0.395,0.154,0.782,0.324,1.11,0.525c0.247,0.108,0.432,0.364,0.493,0.426  C86.246,45.178,85.32,45.676,84.604,45.882z"/>
</svg>